<svg width="163" height="28" viewBox="0 0 163 28" fill="none" xmlns="http://www.w3.org/2000/svg">
<g clip-path="url(#clip0_619_4540)">
<path d="M39.78 26.5928C38.739 26.5928 37.699 26.4348 36.659 26.1218C35.635 25.8078 34.802 25.4038 34.162 24.9078L35.507 22.1338C35.843 22.3658 36.211 22.5638 36.611 22.7278C37.027 22.9108 37.459 23.0498 37.907 23.1508C38.355 23.2488 38.812 23.2978 39.276 23.2978C40.093 23.2978 40.756 23.1748 41.269 22.9268C41.771 22.6888 42.178 22.2868 42.422 21.7868C42.678 21.2918 42.806 20.6648 42.806 19.9048V17.7008L43.55 17.8238C43.438 18.3688 43.158 18.8648 42.709 19.3098C42.249 19.7758 41.702 20.1458 41.099 20.4008C40.453 20.6658 39.759 20.8008 39.059 20.7968C37.907 20.7968 36.875 20.5238 35.962 19.9798C35.06 19.4118 34.323 18.6168 33.825 17.6748C33.313 16.6848 33.057 15.5448 33.057 14.2578C33.057 12.9358 33.313 11.7728 33.825 10.7648C34.337 9.74083 35.042 8.93983 35.939 8.36183C36.835 7.76783 37.843 7.46983 38.964 7.46983C39.444 7.46983 39.9 7.52783 40.332 7.64283C40.78 7.75983 41.19 7.91683 41.558 8.11383C41.941 8.29583 42.278 8.51983 42.566 8.78283C42.87 9.03083 43.11 9.30383 43.286 9.59983C43.478 9.89783 43.606 10.2028 43.67 10.5168L42.878 10.7148L43.022 7.74283H46.672V19.8308C46.672 20.9038 46.512 21.8528 46.192 22.6788C45.909 23.4868 45.44 24.2158 44.822 24.8088C44.213 25.4138 43.474 25.8708 42.662 26.1468C41.812 26.4438 40.852 26.5928 39.78 26.5928ZM39.876 17.7258C40.501 17.7258 41.036 17.5848 41.485 17.3038C41.947 17.0098 42.314 16.5878 42.542 16.0898C42.797 15.5778 42.926 14.9748 42.926 14.2818C42.926 13.5878 42.796 12.9858 42.542 12.4738C42.324 11.9698 41.954 11.5458 41.485 11.2598C41.037 10.9628 40.501 10.8138 39.875 10.8138C39.268 10.8138 38.74 10.9618 38.291 11.2608C37.843 11.5408 37.491 11.9458 37.235 12.4748C36.995 12.9858 36.875 13.5878 36.875 14.2818C36.875 14.9748 36.995 15.5778 37.235 16.0898C37.473 16.5808 37.837 16.9998 38.291 17.3038C38.739 17.5848 39.268 17.7258 39.876 17.7258ZM56.011 21.1428C54.683 21.1428 53.498 20.8458 52.458 20.2518C51.444 19.6688 50.6 18.8318 50.008 17.8238C49.416 16.7998 49.12 15.6288 49.12 14.3068C49.12 12.9858 49.416 11.8138 50.008 10.7898C50.6 9.78183 51.445 8.94483 52.458 8.36183C53.498 7.76783 54.683 7.46983 56.012 7.46983C57.34 7.46983 58.517 7.76783 59.541 8.36183C60.561 8.93583 61.407 9.77483 61.99 10.7898C62.582 11.8138 62.879 12.9858 62.879 14.3068C62.879 15.6278 62.582 16.7998 61.989 17.8238C61.407 18.8388 60.561 19.6778 59.541 20.2518C58.517 20.8458 57.34 21.1428 56.011 21.1428ZM56.011 17.7248C56.556 17.7338 57.092 17.5788 57.548 17.2798C58.002 16.9758 58.366 16.5568 58.604 16.0658C58.861 15.5538 58.981 14.9678 58.964 14.3068C58.981 13.6458 58.86 13.0608 58.604 12.5488C58.371 12.0468 58.006 11.6188 57.548 11.3088C57.092 11.0098 56.556 10.8548 56.011 10.8638C55.435 10.8638 54.915 11.0118 54.45 11.3088C53.992 11.6188 53.626 12.0468 53.393 12.5488C53.138 13.0608 53.018 13.6458 53.033 14.3068C53.018 14.9678 53.138 15.5538 53.395 16.0658C53.65 16.5778 54.002 16.9818 54.45 17.2798C54.915 17.5758 55.435 17.7248 56.01 17.7248H56.011ZM68.953 20.8958L63.623 7.74383H67.873L71.043 17.5758L70.108 17.6748L73.373 7.74283H77.575L71.98 20.8948L68.953 20.8958ZM84.053 21.1678C82.949 21.1678 81.963 20.8788 81.099 20.3018C80.251 19.7068 79.579 18.8978 79.082 17.8738C78.586 16.8328 78.338 15.6528 78.338 14.3308C78.338 13.0108 78.586 11.8378 79.082 10.8138C79.579 9.77383 80.259 8.95683 81.122 8.36183C81.988 7.76783 82.981 7.46983 84.101 7.46983C84.677 7.46983 85.229 7.56083 85.758 7.74283C86.272 7.91683 86.758 8.16783 87.198 8.48583C87.613 8.78183 87.971 9.15083 88.254 9.57583C88.528 9.97183 88.688 10.3848 88.734 10.8138L87.822 11.0368V2.56583H91.689V20.8958H88.109L87.895 17.8978L88.662 18.0228C88.607 18.4538 88.442 18.8628 88.182 19.2108C87.927 19.5908 87.591 19.9288 87.174 20.2268C86.73 20.5208 86.245 20.7458 85.734 20.8958C85.193 21.0798 84.625 21.1718 84.053 21.1678ZM85.038 17.8738C85.63 17.8738 86.142 17.7258 86.574 17.4278C87.006 17.1308 87.334 16.7178 87.558 16.1888C87.798 15.6608 87.918 15.0418 87.918 14.3308C87.918 13.6048 87.798 12.9778 87.558 12.4488C87.357 11.9498 87.015 11.5188 86.574 11.2108C86.143 10.9138 85.63 10.7648 85.038 10.7648C84.446 10.7648 83.933 10.9138 83.5 11.2108C83.085 11.5078 82.757 11.9208 82.516 12.4488C82.276 12.9768 82.156 13.6048 82.156 14.3308C82.156 15.0418 82.276 15.6608 82.516 16.1888C82.756 16.7168 83.084 17.1308 83.5 17.4278C83.932 17.7248 84.446 17.8738 85.038 17.8738ZM99.644 21.1188C98.572 21.1188 97.611 20.8288 96.763 20.2518C95.93 19.6578 95.266 18.8478 94.769 17.8238C94.273 16.7828 94.025 15.6118 94.025 14.3068C94.025 12.9698 94.273 11.7888 94.769 10.7648C95.266 9.74083 95.947 8.93983 96.809 8.36183C97.675 7.76783 98.659 7.46983 99.764 7.46983C100.372 7.46983 100.924 7.56083 101.421 7.74283C101.913 7.91283 102.369 8.17283 102.766 8.51083C103.15 8.82483 103.478 9.19583 103.75 9.62583C104.022 10.0368 104.222 10.4838 104.349 10.9628L103.558 10.8638V7.74283H107.376V20.8948H103.485V17.7258L104.35 17.7018C104.218 18.1718 104.007 18.6158 103.726 19.0138C103.434 19.4308 103.077 19.7988 102.669 20.1038C102.246 20.4218 101.776 20.6718 101.277 20.8468C100.752 21.0308 100.199 21.1228 99.643 21.1198L99.644 21.1188ZM100.7 17.7748C101.292 17.7748 101.804 17.6338 102.238 17.3528C102.669 17.0728 103.005 16.6768 103.246 16.1648C103.486 15.6368 103.606 15.0178 103.606 14.3068C103.606 13.5968 103.486 12.9858 103.245 12.4738C103.005 11.9458 102.669 11.5408 102.237 11.2598C101.806 10.9628 101.292 10.8138 100.701 10.8138C100.124 10.8138 99.62 10.9618 99.187 11.2608C98.772 11.5408 98.444 11.9458 98.203 12.4748C97.963 12.9858 97.843 13.5968 97.843 14.3068C97.843 15.0158 97.963 15.6368 98.203 16.1648C98.443 16.6768 98.771 17.0728 99.188 17.3528C99.618 17.6338 100.124 17.7748 100.7 17.7748ZM115.064 21.1428C113.815 21.1428 112.711 20.9368 111.751 20.5238C110.806 20.1118 110.053 19.5588 109.493 18.8648L111.822 16.7828C112.294 17.2788 112.868 17.6678 113.504 17.9228C114.127 18.1548 114.719 18.2698 115.28 18.2698C115.505 18.2698 115.705 18.2448 115.88 18.1958C116.035 18.1558 116.182 18.0888 116.313 17.9968C116.43 17.9108 116.528 17.8008 116.601 17.6748C116.667 17.5358 116.7 17.3838 116.697 17.2298C116.705 16.9138 116.539 16.6188 116.265 16.4618C116.034 16.3428 115.793 16.2428 115.545 16.1648C115.116 16.0208 114.683 15.8878 114.247 15.7678C113.571 15.5968 112.913 15.3648 112.279 15.0748C111.781 14.8278 111.327 14.5018 110.934 14.1088C110.622 13.7748 110.37 13.3888 110.19 12.9688C110.008 12.5118 109.918 12.0238 109.925 11.5328C109.917 10.9538 110.058 10.3818 110.334 9.87283C110.624 9.37483 111.007 8.93783 111.463 8.58483C111.953 8.21583 112.506 7.93983 113.095 7.76783C113.716 7.56983 114.364 7.46983 115.016 7.46983C115.696 7.46683 116.374 7.55083 117.033 7.71783C117.652 7.87483 118.248 8.10783 118.81 8.41183C119.353 8.69583 119.854 9.05483 120.299 9.47683L118.282 11.8048C117.985 11.5178 117.654 11.2688 117.297 11.0618C116.953 10.8348 116.582 10.6518 116.193 10.5168C115.854 10.3928 115.497 10.3258 115.136 10.3188C114.896 10.3188 114.679 10.3438 114.488 10.3928C114.322 10.4218 114.166 10.4898 114.032 10.5918C113.907 10.6698 113.807 10.7818 113.743 10.9138C113.676 11.0438 113.643 11.1888 113.648 11.3348C113.648 11.4988 113.688 11.6568 113.768 11.8048C113.863 11.9528 113.992 12.0778 114.151 12.1768C114.311 12.2758 114.568 12.3908 114.92 12.5228C115.272 12.6388 115.752 12.7868 116.361 12.9698C117.029 13.1528 117.679 13.3928 118.305 13.6878C118.85 13.9508 119.282 14.2658 119.602 14.6288C119.859 14.9098 120.051 15.2398 120.178 15.6198C120.307 15.9828 120.371 16.3798 120.371 16.8088C120.371 17.6508 120.138 18.4028 119.675 19.0618C119.227 19.7058 118.602 20.2178 117.802 20.5978C117.001 20.9608 116.089 21.1428 115.064 21.1428ZM122.655 20.8958V2.56583H126.425V10.4178L125.656 10.7148C125.838 10.1118 126.159 9.56083 126.593 9.10483C127.062 8.60483 127.625 8.20183 128.249 7.91683C128.88 7.62183 129.569 7.46883 130.266 7.46983C131.228 7.46983 132.035 7.67683 132.691 8.08983C133.349 8.48583 133.845 9.08783 134.18 9.89783C134.517 10.6898 134.685 11.6648 134.685 12.8208V20.8958H130.818V13.1428C130.818 12.6148 130.747 12.1768 130.603 11.8298C130.476 11.5028 130.238 11.2308 129.931 11.0618C129.643 10.8808 129.282 10.7988 128.85 10.8138C128.513 10.8138 128.202 10.8718 127.914 10.9868C127.626 11.0868 127.378 11.2438 127.169 11.4578C126.961 11.6568 126.79 11.8918 126.665 12.1518C126.551 12.4268 126.493 12.7218 126.496 13.0188V20.8958H122.655ZM137.56 21.0318C137.296 21.0318 137.092 20.9538 136.948 20.7968C136.804 20.6318 136.733 20.4008 136.733 20.1028C136.733 19.8308 136.808 19.6068 136.961 19.4338C137.111 19.2618 137.331 19.1658 137.56 19.1738C137.825 19.1738 138.029 19.2568 138.173 19.4218C138.318 19.5788 138.389 19.8058 138.389 20.1028C138.389 20.3758 138.313 20.5988 138.161 20.7718C138.01 20.9448 137.789 21.0408 137.56 21.0318ZM142.466 21.0188C141.909 21.0278 141.363 20.8728 140.893 20.5738C140.431 20.2698 140.054 19.8518 139.8 19.3598C139.531 18.8258 139.395 18.2358 139.404 17.6378C139.404 17.0028 139.536 16.4288 139.8 15.9178C140.055 15.4258 140.431 15.0078 140.893 14.7038C141.363 14.4048 141.909 14.2498 142.466 14.2578C143.026 14.2578 143.535 14.3768 143.991 14.6158C144.455 14.8488 144.807 15.1648 145.047 15.5708L144.363 16.4358C144.227 16.2378 144.061 16.0628 143.87 15.9168C143.676 15.7638 143.462 15.6388 143.234 15.5448C143.029 15.4578 142.809 15.4118 142.586 15.4088C142.202 15.4088 141.857 15.5078 141.553 15.7068C141.251 15.9028 141.007 16.1758 140.845 16.4978C140.666 16.8508 140.575 17.2418 140.581 17.6378C140.581 18.0598 140.673 18.4398 140.857 18.7778C141.041 19.1078 141.285 19.3728 141.589 19.5698C141.893 19.7688 142.23 19.8678 142.598 19.8678C142.814 19.8678 143.022 19.8308 143.222 19.7558C143.43 19.6818 143.63 19.5698 143.823 19.4218C144.025 19.2638 144.206 19.0798 144.363 18.8768L145.047 19.7438C144.791 20.1158 144.423 20.4208 143.943 20.6608C143.486 20.8958 142.98 21.0188 142.466 21.0188ZM149.047 21.0188C148.466 21.0288 147.893 20.8788 147.39 20.5868C146.912 20.2918 146.519 19.8768 146.25 19.3838C145.969 18.8718 145.829 18.2908 145.829 17.6378C145.829 16.9858 145.969 16.4088 146.25 15.9038C146.515 15.4078 146.909 14.9928 147.39 14.7028C147.89 14.4028 148.464 14.2488 149.047 14.2578C149.623 14.2478 150.189 14.4028 150.68 14.7028C151.166 14.9898 151.565 15.4058 151.833 15.9038C152.113 16.4088 152.252 16.9858 152.252 17.6378C152.252 18.2908 152.113 18.8728 151.833 19.3838C151.561 19.8798 151.163 20.2948 150.68 20.5868C150.186 20.8788 149.621 21.0278 149.047 21.0188ZM149.047 19.8548C149.424 19.8548 149.759 19.7598 150.056 19.5698C150.351 19.3728 150.584 19.1078 150.752 18.7788C150.92 18.4398 151 18.0598 150.992 17.6388C151.008 17.2448 150.925 16.8528 150.752 16.4988C150.597 16.1758 150.356 15.9018 150.056 15.7068C149.755 15.5148 149.404 15.4158 149.047 15.4218C148.671 15.4218 148.331 15.5208 148.027 15.7178C147.731 15.9078 147.498 16.1718 147.33 16.5108C147.158 16.8608 147.075 17.2488 147.09 17.6388C147.076 18.0318 147.158 18.4238 147.33 18.7788C147.498 19.1078 147.731 19.3728 148.027 19.5698C148.331 19.7598 148.671 19.8548 149.047 19.8548ZM153.576 20.8958V14.3938H154.825V15.7808L154.597 15.9288C154.661 15.7138 154.761 15.5078 154.897 15.3098C155.041 15.1118 155.213 14.9378 155.414 14.7898C155.621 14.6328 155.842 14.5098 156.073 14.4178C156.314 14.3268 156.558 14.2818 156.806 14.2818C157.166 14.2818 157.482 14.3438 157.755 14.4678C158.027 14.5918 158.251 14.7778 158.426 15.0248C158.603 15.2728 158.73 15.5818 158.811 15.9538L158.619 15.9038L158.703 15.6928C158.795 15.4978 158.916 15.3188 159.063 15.1608C159.223 14.9878 159.403 14.8348 159.603 14.7028C159.801 14.5718 160.015 14.4678 160.239 14.3938C160.463 14.3198 160.684 14.2818 160.9 14.2818C161.372 14.2818 161.76 14.3808 162.065 14.5798C162.376 14.7778 162.609 15.0788 162.761 15.4838C162.921 15.8878 163.001 16.3918 163.001 16.9938V20.8958H161.753V17.0688C161.753 16.6968 161.704 16.3958 161.609 16.1648C161.536 15.9458 161.392 15.7588 161.2 15.6318C161.016 15.5158 160.78 15.4588 160.492 15.4588C160.268 15.4588 160.055 15.5008 159.856 15.5818C159.475 15.7268 159.171 16.0228 159.015 16.3998C158.933 16.5918 158.891 16.7978 158.894 17.0068V20.8958H157.646V17.0428C157.646 16.7048 157.598 16.4198 157.502 16.1888C157.421 15.9688 157.275 15.7788 157.083 15.6448C156.882 15.5158 156.647 15.4508 156.409 15.4588C156.195 15.4578 155.983 15.4988 155.785 15.5818C155.593 15.6558 155.425 15.7638 155.281 15.9038C155.135 16.0388 155.02 16.2038 154.945 16.3878C154.865 16.5688 154.825 16.7678 154.825 16.9818V20.8958H153.576ZM19.293 14.0068C19.293 10.4628 21.66 7.35583 25.077 6.41583C22.624 2.71583 18.437 0.277832 13.679 0.277832C6.127 0.277832 0 6.42583 0 14.0068C0 21.5868 6.127 27.7368 13.679 27.7368C18.437 27.7368 22.624 25.2988 25.077 21.5988C21.658 20.6608 19.289 17.5518 19.293 14.0068Z" fill="white"/>
</g>
<defs>
<clipPath id="clip0_619_4540">
<rect width="163" height="28" fill="white"/>
</clipPath>
</defs>
</svg>
